<?xml version="1.0" encoding="utf-8"?>
<!-- Generator: Adobe Illustrator 18.1.1, SVG Export Plug-In . SVG Version: 6.00 Build 0)  -->
<svg version="1.1"
	 id="svg2" xmlns:dc="http://purl.org/dc/elements/1.1/" xmlns:cc="http://web.resource.org/cc/" xmlns:rdf="http://www.w3.org/1999/02/22-rdf-syntax-ns#" xmlns:svg="http://www.w3.org/2000/svg" xmlns:sodipodi="http://sodipodi.sourceforge.net/DTD/sodipodi-0.dtd" xmlns:inkscape="http://www.inkscape.org/namespaces/inkscape" inkscape:export-filename="/Users/dgomes/Desktop/space invader.png" inkscape:version="0.44" inkscape:export-ydpi="90" sodipodi:docbase="/Users/dgomes/Desktop" sodipodi:version="0.32" sodipodi:docname="space invader.svg" inkscape:export-xdpi="90"
	 xmlns="http://www.w3.org/2000/svg" xmlns:xlink="http://www.w3.org/1999/xlink" x="0px" y="0px" viewBox="396 -242.1 110 80"
	 enable-background="new 396 -242.1 110 80" xml:space="preserve">
<g>
	<rect x="416" y="-242.1" width="10" height="10"/>
	<polygon points="436,-162.1 446,-162.1 446,-172.1 436,-172.1 426,-172.1 426,-162.1 	"/>
	<rect x="476" y="-242.1" width="10" height="10"/>
	<path d="M496-202.1v-10h-10v-10h-10v-10h-10v10h-10h-10h-10v-10h-10v10h-10v10h-10v10h-10v10v10v10h10v-10v-10h10v10v10h10v-10h10
		h10h10h10h10v10h10v-10v-10h10v10v10h10v-10v-10v-10H496z M476-212.1v10h-10v-10H476z M436-212.1v10h-10v-10H436z"/>
	<polygon points="456,-172.1 456,-162.1 466,-162.1 476,-162.1 476,-172.1 466,-172.1 	"/>
</g>
</svg>
