<?xml version="1.0" encoding="UTF-8"?><!DOCTYPE svg PUBLIC "-//W3C//DTD SVG 1.1//EN" "http://www.w3.org/Graphics/SVG/1.1/DTD/svg11.dtd"><svg xmlns="http://www.w3.org/2000/svg"><symbol id="icon-logotype" viewBox="396 -242.1 110 80"><path d="M416-242.1h10v10h-10zM436-162.1h10v-10h-20v10M476-242.1h10v10h-10zM496-202.1v-10h-10v-10h-10v-10h-10v10h-30v-10h-10v10h-10v10h-10v10h-10v30h10v-20h10v20h10v-10h50v10h10v-20h10v20h10v-30h-10zm-20-10v10h-10v-10h10zm-40 0v10h-10v-10h10zM456-172.1v10h20v-10h-10"/></symbol></svg>